<?xml version="1.0" encoding="utf-8"?>
<!DOCTYPE svg PUBLIC "-//W3C//DTD SVG 1.0//EN" "http://www.w3.org/TR/2001/REC-SVG-20010904/DTD/svg10.dtd">
<svg version="1.0" xmlns="http://www.w3.org/2000/svg" xmlns:xlink="http://www.w3.org/1999/xlink" xml:space="preserve"
	x="0px" y="0px" width="947px" height="947px" viewBox="0 0 947 947" enable-background="new 0 0 947 947">
	<g>
		<path fill="#0096FF" d="M835.5,473.6c0-199.8-162.2-362-362-362s-362,162.2-362,362c0,199.8,162.2,362,362,362
			S835.5,673.4,835.5,473.6"/>
		<path fill="#FFFFFF" d="M729.5,323.6c0-58.5-47.5-106-106-106s-106,47.5-106,106c0,58.5,47.5,106,106,106S729.5,382.1,729.5,323.6"
			/>
		<text style="font-family: 'Coolvetica', sans-serif; font-size: 435px" x="210" y="550" fill="#fff">g</text>
		<path fill="#0096FF" d="M941.5,111.5c0-58.5-47.5-106-106-106s-106,47.5-106,106c0,58.5,47.5,106,106,106S941.5,170.1,941.5,111.5"
			/>
		<path fill="none" stroke="#808080" stroke-width="10.8612" stroke-miterlimit="10" stroke-dasharray="40.8475" d="M890.6,261
			c33.5,65.8,51,138.6,51,212.5c0,258.4-209.7,468.1-468.1,468.1S5.4,731.9,5.4,473.5C5.4,215.1,215.1,5.4,473.5,5.4
			c83.1,0,164.6,22.1,236.2,63.9"/>
	</g>
</svg>
